HIERARCHY
ROOT Hips
{
  OFFSET -7.71607 92.0893 -287.674
  CHANNELS 6 Xposition Yposition Zposition Zrotation Xrotation Yrotation
  JOINT LeftUpLeg
  {
    OFFSET 8.91 -6.27 -2.145
    CHANNELS 6 Xposition Yposition Zposition Zrotation Xrotation Yrotation
    JOINT LeftUpLegRoll
    {
      OFFSET 0 -22.7323 0
      CHANNELS 6 Xposition Yposition Zposition Zrotation Xrotation Yrotation
      JOINT LeftLeg
      {
        OFFSET 0 -22.1464 0
        CHANNELS 6 Xposition Yposition Zposition Zrotation Xrotation Yrotation
        JOINT LeftLegRoll
        {
          OFFSET 0 -22.0919 0
          CHANNELS 6 Xposition Yposition Zposition Zrotation Xrotation Yrotation
          JOINT LeftFoot
          {
            OFFSET 0 -18.609 0
            CHANNELS 6 Xposition Yposition Zposition Zrotation Xrotation Yrotation
            JOINT LeftToeBase
            {
              OFFSET 0 -6.26232 12.9547
              CHANNELS 6 Xposition Yposition Zposition Zrotation Xrotation Yrotation
              End Site
              {
                OFFSET 0 0 5.96686
              }
            }
          }
        }
      }
    }
  }
  JOINT RightUpLeg
  {
    OFFSET -8.91 -6.27 -2.145
    CHANNELS 6 Xposition Yposition Zposition Zrotation Xrotation Yrotation
    JOINT RightUpLegRoll
    {
      OFFSET 0 -22.7323 0
      CHANNELS 6 Xposition Yposition Zposition Zrotation Xrotation Yrotation
      JOINT RightLeg
      {
        OFFSET 0 -22.1464 0
        CHANNELS 6 Xposition Yposition Zposition Zrotation Xrotation Yrotation
        JOINT RightLegRoll
        {
          OFFSET 0 -22.0919 0
          CHANNELS 6 Xposition Yposition Zposition Zrotation Xrotation Yrotation
          JOINT RightFoot
          {
            OFFSET 0 -18.609 0
            CHANNELS 6 Xposition Yposition Zposition Zrotation Xrotation Yrotation
            JOINT RightToeBase
            {
              OFFSET 0 -6.26232 12.9547
              CHANNELS 6 Xposition Yposition Zposition Zrotation Xrotation Yrotation
              End Site
              {
                OFFSET 0 0.000942417 5.96686
              }
            }
          }
        }
      }
    }
  }
  JOINT Spine
  {
    OFFSET 0 7.43174 -2.06162
    CHANNELS 6 Xposition Yposition Zposition Zrotation Xrotation Yrotation
    JOINT Spine1
    {
      OFFSET -1.68772e-005 12.1899 -1.41951
      CHANNELS 6 Xposition Yposition Zposition Zrotation Xrotation Yrotation
      JOINT Spine2
      {
        OFFSET 0 11.8846 -1.0903
        CHANNELS 6 Xposition Yposition Zposition Zrotation Xrotation Yrotation
        JOINT Spine3
        {
          OFFSET 1.84329e-005 10.5137 1.04001
          CHANNELS 6 Xposition Yposition Zposition Zrotation Xrotation Yrotation
          JOINT LeftShoulder
          {
            OFFSET 7 4.56855 2.0674
            CHANNELS 6 Xposition Yposition Zposition Zrotation Xrotation Yrotation
            JOINT LeftArm
            {
              OFFSET 10.7073 0 0
              CHANNELS 6 Xposition Yposition Zposition Zrotation Xrotation Yrotation
              JOINT LeftArmRoll
              {
                OFFSET 15.2612 0 0
                CHANNELS 6 Xposition Yposition Zposition Zrotation Xrotation Yrotation
                JOINT LeftForeArm
                {
                  OFFSET 12.0443 0 0
                  CHANNELS 6 Xposition Yposition Zposition Zrotation Xrotation Yrotation
                  JOINT LeftForeArmRoll
                  {
                    OFFSET 16.3277 0 0
                    CHANNELS 6 Xposition Yposition Zposition Zrotation Xrotation Yrotation
                    JOINT LeftHand
                    {
                      OFFSET 10.3694 0 0
                      CHANNELS 6 Xposition Yposition Zposition Zrotation Xrotation Yrotation
                      JOINT LeftHandThumb1
                      {
                        OFFSET 4.34876 -0.798502 4.28243
                        CHANNELS 6 Xposition Yposition Zposition Zrotation Xrotation Yrotation
                        JOINT LeftHandThumb2
                        {
                          OFFSET 2.51259 -0.536099 0.707454
                          CHANNELS 6 Xposition Yposition Zposition Zrotation Xrotation Yrotation
                          JOINT LeftHandThumb3
                          {
                            OFFSET 2.54314 0 0
                            CHANNELS 6 Xposition Yposition Zposition Zrotation Xrotation Yrotation
                            JOINT LeftHandThumb4
                            {
                              OFFSET 2.66675 0 0
                              CHANNELS 6 Xposition Yposition Zposition Zrotation Xrotation Yrotation
                              End Site
                              {
                                OFFSET 0 0 0
                              }
                            }
                          }
                        }
                      }
                      JOINT LeftHandIndex1
                      {
                        OFFSET 8.82198 0.199729 3.47167
                        CHANNELS 6 Xposition Yposition Zposition Zrotation Xrotation Yrotation
                        JOINT LeftHandIndex2
                        {
                          OFFSET 4.22532 0 -0.000262656
                          CHANNELS 6 Xposition Yposition Zposition Zrotation Xrotation Yrotation
                          JOINT LeftHandIndex3
                          {
                            OFFSET 2.65394 0 -0.00016516
                            CHANNELS 6 Xposition Yposition Zposition Zrotation Xrotation Yrotation
                            JOINT LeftHandIndex4
                            {
                              OFFSET 1.95822 0 -0.00012217
                              CHANNELS 6 Xposition Yposition Zposition Zrotation Xrotation Yrotation
                              End Site
                              {
                                OFFSET 0 0 0
                              }
                            }
                          }
                        }
                      }
                      JOINT LeftHandMiddle1
                      {
                        OFFSET 8.80988 0.50089 1.30468
                        CHANNELS 6 Xposition Yposition Zposition Zrotation Xrotation Yrotation
                        JOINT LeftHandMiddle2
                        {
                          OFFSET 4.86325 0 0
                          CHANNELS 6 Xposition Yposition Zposition Zrotation Xrotation Yrotation
                          JOINT LeftHandMiddle3
                          {
                            OFFSET 2.76524 0 0
                            CHANNELS 6 Xposition Yposition Zposition Zrotation Xrotation Yrotation
                            JOINT LeftHandMiddle4
                            {
                              OFFSET 2.00563 0 0
                              CHANNELS 6 Xposition Yposition Zposition Zrotation Xrotation Yrotation
                              End Site
                              {
                                OFFSET 0 0 0
                              }
                            }
                          }
                        }
                      }
                      JOINT LeftHandRing1
                      {
                        OFFSET 8.89376 0.37992 -0.793159
                        CHANNELS 6 Xposition Yposition Zposition Zrotation Xrotation Yrotation
                        JOINT LeftHandRing2
                        {
                          OFFSET 4.53776 0 -0.000282138
                          CHANNELS 6 Xposition Yposition Zposition Zrotation Xrotation Yrotation
                          JOINT LeftHandRing3
                          {
                            OFFSET 2.30453 0 -0.000143448
                            CHANNELS 6 Xposition Yposition Zposition Zrotation Xrotation Yrotation
                            JOINT LeftHandRing4
                            {
                              OFFSET 1.92335 0 -0.00012044
                              CHANNELS 6 Xposition Yposition Zposition Zrotation Xrotation Yrotation
                              End Site
                              {
                                OFFSET 0 0 0
                              }
                            }
                          }
                        }
                      }
                      JOINT LeftHandPinky1
                      {
                        OFFSET 8.88227 -0.313027 -2.49036
                        CHANNELS 6 Xposition Yposition Zposition Zrotation Xrotation Yrotation
                        JOINT LeftHandPinky2
                        {
                          OFFSET 3.0441 0 0
                          CHANNELS 6 Xposition Yposition Zposition Zrotation Xrotation Yrotation
                          JOINT LeftHandPinky3
                          {
                            OFFSET 1.9745 0 0
                            CHANNELS 6 Xposition Yposition Zposition Zrotation Xrotation Yrotation
                            JOINT LeftHandPinky4
                            {
                              OFFSET 1.66661 0 0
                              CHANNELS 6 Xposition Yposition Zposition Zrotation Xrotation Yrotation
                              End Site
                              {
                                OFFSET 0 0 0
                              }
                            }
                          }
                        }
                      }
                    }
                  }
                }
              }
            }
          }
          JOINT RightShoulder
          {
            OFFSET -7 4.56855 2.0673
            CHANNELS 6 Xposition Yposition Zposition Zrotation Xrotation Yrotation
            JOINT RightArm
            {
              OFFSET -10.7073 0 0
              CHANNELS 6 Xposition Yposition Zposition Zrotation Xrotation Yrotation
              JOINT RightArmRoll
              {
                OFFSET -15.2612 0 0
                CHANNELS 6 Xposition Yposition Zposition Zrotation Xrotation Yrotation
                JOINT RightForeArm
                {
                  OFFSET -12.0444 0 0
                  CHANNELS 6 Xposition Yposition Zposition Zrotation Xrotation Yrotation
                  JOINT RightForeArmRoll
                  {
                    OFFSET -16.3276 0 0
                    CHANNELS 6 Xposition Yposition Zposition Zrotation Xrotation Yrotation
                    JOINT RightHand
                    {
                      OFFSET -10.3694 0 0
                      CHANNELS 6 Xposition Yposition Zposition Zrotation Xrotation Yrotation
                      JOINT RightHandThumb1
                      {
                        OFFSET -4.34838 -0.798501 4.28282
                        CHANNELS 6 Xposition Yposition Zposition Zrotation Xrotation Yrotation
                        JOINT RightHandThumb2
                        {
                          OFFSET -2.51253 -0.536099 0.707679
                          CHANNELS 6 Xposition Yposition Zposition Zrotation Xrotation Yrotation
                          JOINT RightHandThumb3
                          {
                            OFFSET -2.54159 0 0.0888232
                            CHANNELS 6 Xposition Yposition Zposition Zrotation Xrotation Yrotation
                            JOINT RightHandThumb4
                            {
                              OFFSET -2.66512 0 0.0931403
                              CHANNELS 6 Xposition Yposition Zposition Zrotation Xrotation Yrotation
                              End Site
                              {
                                OFFSET 0 0 0
                              }
                            }
                          }
                        }
                      }
                      JOINT RightHandIndex1
                      {
                        OFFSET -8.82167 0.199732 3.47246
                        CHANNELS 6 Xposition Yposition Zposition Zrotation Xrotation Yrotation
                        JOINT RightHandIndex2
                        {
                          OFFSET -4.22532 0 0.0001146
                          CHANNELS 6 Xposition Yposition Zposition Zrotation Xrotation Yrotation
                          JOINT RightHandIndex3
                          {
                            OFFSET -2.65394 0 7.19601e-005
                            CHANNELS 6 Xposition Yposition Zposition Zrotation Xrotation Yrotation
                            JOINT RightHandIndex4
                            {
                              OFFSET -1.95822 0 5.30956e-005
                              CHANNELS 6 Xposition Yposition Zposition Zrotation Xrotation Yrotation
                              End Site
                              {
                                OFFSET 0 0 0
                              }
                            }
                          }
                        }
                      }
                      JOINT RightHandMiddle1
                      {
                        OFFSET -8.80976 0.500893 1.30547
                        CHANNELS 6 Xposition Yposition Zposition Zrotation Xrotation Yrotation
                        JOINT RightHandMiddle2
                        {
                          OFFSET -4.86325 0 0.000131881
                          CHANNELS 6 Xposition Yposition Zposition Zrotation Xrotation Yrotation
                          JOINT RightHandMiddle3
                          {
                            OFFSET -2.76524 0 7.49854e-005
                            CHANNELS 6 Xposition Yposition Zposition Zrotation Xrotation Yrotation
                            JOINT RightHandMiddle4
                            {
                              OFFSET -2.00563 0 5.43888e-005
                              CHANNELS 6 Xposition Yposition Zposition Zrotation Xrotation Yrotation
                              End Site
                              {
                                OFFSET 0 0 0
                              }
                            }
                          }
                        }
                      }
                      JOINT RightHandRing1
                      {
                        OFFSET -8.89383 0.379922 -0.792364
                        CHANNELS 6 Xposition Yposition Zposition Zrotation Xrotation Yrotation
                        JOINT RightHandRing2
                        {
                          OFFSET -4.53776 0 0.000123049
                          CHANNELS 6 Xposition Yposition Zposition Zrotation Xrotation Yrotation
                          JOINT RightHandRing3
                          {
                            OFFSET -2.30453 0 6.24859e-005
                            CHANNELS 6 Xposition Yposition Zposition Zrotation Xrotation Yrotation
                            JOINT RightHandRing4
                            {
                              OFFSET -1.92335 0 5.21537e-005
                              CHANNELS 6 Xposition Yposition Zposition Zrotation Xrotation Yrotation
                              End Site
                              {
                                OFFSET 0 0 0
                              }
                            }
                          }
                        }
                      }
                      JOINT RightHandPinky1
                      {
                        OFFSET -8.8825 -0.313025 -2.48956
                        CHANNELS 6 Xposition Yposition Zposition Zrotation Xrotation Yrotation
                        JOINT RightHandPinky2
                        {
                          OFFSET -3.0478 0 8.26466e-005
                          CHANNELS 6 Xposition Yposition Zposition Zrotation Xrotation Yrotation
                          JOINT RightHandPinky3
                          {
                            OFFSET -1.9769 0 5.36145e-005
                            CHANNELS 6 Xposition Yposition Zposition Zrotation Xrotation Yrotation
                            JOINT RightHandPinky4
                            {
                              OFFSET -1.66864 0 4.5245e-005
                              CHANNELS 6 Xposition Yposition Zposition Zrotation Xrotation Yrotation
                              End Site
                              {
                                OFFSET 0 0 0
                              }
                            }
                          }
                        }
                      }
                    }
                  }
                }
              }
            }
          }
          JOINT Neck
          {
            OFFSET 0 11.5156 1.94702
            CHANNELS 6 Xposition Yposition Zposition Zrotation Xrotation Yrotation
            JOINT Head
            {
              OFFSET -1.26215e-005 11.0733 1.65432
              CHANNELS 6 Xposition Yposition Zposition Zrotation Xrotation Yrotation
              End Site
              {
                OFFSET 0 17.7047 0
              }
            }
          }
        }
      }
    }
  }
}
MOTION
Frames:	2
Frame Time:	0.0333333
-27.9332 97.5569 32.9935 3.53984 7.78235 -17.5731 8.91 -6.27 -2.145 -15.3925 16.6192 2.27284 -8.88178e-015 -22.7323 -4.71169e-007 5.10797e-018 -1.89249e-016 3.09217 -1.24345e-014 -22.1464 5.17666e-008 -5.09902e-008 43.6596 11.4425 -8.88178e-015 -22.0919 1.36431e-008 1.13435e-018 -8.92083e-017 1.45704 -1.42109e-014 -18.609 1.69696e-008 -9.31257 7.17745 0.585347 5.32907e-015 -6.26232 12.9547 -4.29059e-007 -1.04696e-007 -7.84018e-016 -8.91 -6.27 -2.145 1.15154 -44.9071 0.139133 -2.71633e-006 -22.7323 -4.51374e-007 3.90292e-020 1.65486e-017 -0.27026 -4.24549e-013 -22.1464 1.4554e-008 1.18436e-007 25.0111 15.2577 9.19562e-007 -22.0919 4.09714e-008 6.6234e-019 -6.8169e-017 1.11335 -3.606e-013 -18.609 -7.98564e-010 1.19737 -16.8749 0.172961 -6.4416e-011 -6.26232 12.9547 0.00291259 9.1391e-008 -4.6458e-012 2.32301e-006 7.43174 -2.06162 0.0421997 1.2898 -3.43131 -1.68772e-005 12.1899 -1.41951 1.75829 -1.07345 -3.16924 -3.87879e-006 11.8846 -1.0903 1.84059 -1.00702 -3.14371 1.84329e-005 10.5137 1.04001 1.91762 -0.934145 -3.1197 7 4.56855 2.0674 -9.48649 0 6.5889 10.7073 -5.08749e-012 -5.32907e-015 -29.1143 0.377606 11.0523 15.2612 3.95062e-012 1.16365e-008 -0 14.1077 0 12.0443 -1.25056e-012 2.87898e-009 -19.6255 9.22886 -114.216 16.3277 2.84217e-012 -1.18649e-008 -0 11.1054 0 10.3694 3.12639e-013 2.29894e-008 15.322 -1.31654 -9.76426 4.34876 -0.798502 4.28243 4.79894 -10.1869 -41.2968 2.51259 -0.536099 0.707454 -38.5441 -1.24654 1.56413 2.54314 9.9476e-013 9.34198e-006 -19.5674 0 0 2.66675 -1.27898e-012 -8.21025e-006 -0 0 0 8.82198 0.199729 3.47167 -5.16102 -0.179983 -1.42587 4.22532 4.83737e-011 -0.000262656 -28.3774 0 0 2.65394 2.98712e-011 -0.00016516 -21.6543 0 0 1.95822 2.2311e-011 -0.00012217 -0 0 0 8.80988 0.50089 1.30468 -8.91169 -0.309947 6.79441 4.86325 1.10845e-012 6.11217e-012 -27.1576 0 0 2.76524 3.69482e-013 -1.91784e-007 -19.9091 0 0 2.00563 -8.52651e-013 -1.13863e-006 -0 0 0 8.89376 0.37992 -0.793159 -1.69135 -0.0590546 2.85849 4.53776 8.2423e-013 -0.000282138 -24.6621 0 0 2.30453 0 -0.000143448 -17.453 0 0 1.92335 -4.26326e-013 -0.00012044 -0 0 0 8.88227 -0.313027 -2.49036 -2.49479 -0.0870924 -0.855297 3.0441 -2.04636e-012 1.33227e-015 -16.7511 0 0 1.9745 2.84217e-013 -1.43329e-007 -10.8424 0 0 1.66661 1.64846e-012 7.91347e-007 -0 0 0 -7 4.56855 2.0673 5.47314 1.44817e-016 1.42613 -10.7073 5.20117e-012 2.04281e-014 50.5396 6.41375 -27.803 -15.2612 -6.33804e-012 1.86659e-008 1.41358e-015 12.7825 1.41358e-015 -12.0444 -8.46967e-012 -7.98782e-009 -26.2013 35.6324 40.1868 -16.3276 -1.11982e-011 -2.36264e-008 -7.85684e-006 -8.25414 -2.73713e-006 -10.3694 -8.52651e-014 1.64166e-008 -18.61 -2.08668 12.685 -4.34838 -0.798501 4.28282 -4.80438 -10.1895 41.2959 -2.51253 -0.536099 0.707679 36.9513 -1.20258 -1.59818 -2.54159 2.76827e-011 0.0888232 19.1619 0 0 -2.66512 1.86731e-011 0.0931403 0 0 -0 -8.82167 0.199732 3.47246 5.16072 -0.179972 1.42585 -4.22532 2.47269e-012 0.0001146 28.3774 0 0 -2.65394 1.39266e-012 7.19601e-005 21.6543 0 0 -1.95822 1.36424e-012 5.30956e-005 0 0 -0 -8.80976 0.500893 1.30547 8.93593 -0.310783 -4.79799 -4.86325 -1.3074e-012 0.000131881 27.118 0 0 -2.76524 1.76215e-012 7.49854e-005 19.9486 0 0 -2.00563 0 5.43888e-005 0 0 -0 -8.89383 0.379922 -0.792364 1.69549 -0.0591993 -0.862044 -4.53776 4.09273e-012 0.000123049 24.6312 0 0 -2.30453 4.12115e-012 6.24859e-005 17.4823 0 0 -1.92335 7.38964e-013 5.21537e-005 0 0 -0 -8.8825 -0.313025 -2.48956 2.44344 -0.0853008 2.85461 -3.0478 -6.65921e-011 8.26466e-005 16.7616 0 0 -1.9769 -3.85683e-011 5.36145e-005 11.0155 0 0 -1.66864 -3.54419e-011 4.5245e-005 0 0 -0 2.32301e-006 11.5156 1.94702 5.68844 -21.9123 14.7357 -1.26215e-005 11.0733 1.65432 -8.18104 23.9141 17.1648 
-28.5331 95.6586 45.3394 2.94413 6.10805 -17.4033 8.91 -6.27 -2.145 -13.7975 13.9883 3.71764 -8.88178e-015 -22.7323 -4.71169e-007 1.25918e-017 -2.96976e-016 4.85579 -1.24345e-014 -22.1464 5.17666e-008 9.16956e-008 63.0343 2.21613 -8.88178e-015 -22.0919 1.36431e-008 1.92123e-018 -1.1609e-016 1.89625 -1.42109e-014 -18.609 1.69696e-008 -8.24278 6.99984 0.505012 5.32907e-015 -6.26232 12.9547 -0.00309295 -0.00197784 -1.06768e-007 -8.91 -6.27 -2.145 1.98483 -42.0855 -0.0403416 -2.71633e-006 -22.7323 -4.51374e-007 2.80528e-020 1.40299e-017 -0.229126 -4.24549e-013 -22.1464 1.4554e-008 -3.61079e-007 24.4147 12.3066 9.19562e-007 -22.0919 4.09714e-008 7.12949e-019 -7.07252e-017 1.15511 -3.606e-013 -18.609 -7.98564e-010 3.90803 -22.0629 0.757395 -6.4416e-011 -6.26232 12.9547 0.00291259 9.1391e-008 -4.6458e-012 2.32301e-006 7.43174 -2.06162 0.508076 1.95287 -2.96855 -1.68772e-005 12.1899 -1.41951 1.84218 -1.02179 -2.86682 -3.87879e-006 11.8846 -1.0903 1.93659 -0.970072 -2.82116 1.84329e-005 10.5137 1.04001 2.02681 -0.910959 -2.77621 7 4.56855 2.0674 -10.034 0 7.13949 10.7073 -5.08749e-012 -5.32907e-015 -30.7471 3.88028 11.1131 15.2612 3.95062e-012 1.16365e-008 -0 16.0746 0 12.0443 -1.25056e-012 2.87898e-009 -17.6864 7.68735 -112.758 16.3277 2.84217e-012 -1.18649e-008 -0 11.9525 0 10.3694 3.12639e-013 2.29894e-008 14.31 -1.07318 -8.53354 4.34876 -0.798502 4.28243 4.79479 -10.1859 -41.2974 2.51259 -0.536099 0.707454 -38.5863 -1.2477 1.56321 2.54314 9.9476e-013 9.34198e-006 -19.3449 0 0 2.66675 -1.27898e-012 -8.21025e-006 -0 0 0 8.82198 0.199729 3.47167 -5.2497 -0.183067 -1.42239 4.22532 4.83737e-011 -0.000262656 -28.1705 0 0 2.65394 2.98712e-011 -0.00016516 -21.4478 0 0 1.95822 2.2311e-011 -0.00012217 -0 0 0 8.80988 0.50089 1.30468 -9.20297 -0.319991 6.73654 4.86325 1.10845e-012 6.11217e-012 -26.9784 0 0 2.76524 3.69482e-013 -1.91784e-007 -19.731 0 0 2.00563 -8.52651e-013 -1.13863e-006 -0 0 0 8.89376 0.37992 -0.793159 -1.44274 -0.0503764 2.90795 4.53776 8.2423e-013 -0.000282138 -24.6614 0 0 2.30453 0 -0.000143448 -17.452 0 0 1.92335 -4.26326e-013 -0.00012044 -0 0 0 8.88227 -0.313027 -2.49036 -2.38326 -0.0832014 -0.682472 3.0441 -2.04636e-012 1.33227e-015 -16.5549 0 0 1.9745 2.84217e-013 -1.43329e-007 -10.6385 0 0 1.66661 1.64846e-012 7.91347e-007 -0 0 0 -7 4.56855 2.0673 5.92631 1.05436e-016 1.15559 -10.7073 5.20117e-012 2.04281e-014 51.0465 6.68794 -27.5116 -15.2612 -6.33804e-012 1.86659e-008 1.56255e-015 14.2834 1.56255e-015 -12.0444 -8.46967e-012 -7.98782e-009 -25.1586 33.1728 40.6424 -16.3276 -1.11982e-011 -2.36264e-008 -7.89371e-006 -9.01648 -2.74267e-006 -10.3694 -8.52651e-014 1.64166e-008 -19.5152 -2.24555 13.0036 -4.34838 -0.798501 4.28282 -4.80024 -10.1884 41.2965 -2.51253 -0.536099 0.707679 36.9934 -1.20376 -1.59729 -2.54159 2.76827e-011 0.0888232 18.9447 0 0 -2.66512 1.86731e-011 0.0931403 0 0 -0 -8.82167 0.199732 3.47246 5.2494 -0.183056 1.4224 -4.22532 2.47269e-012 0.0001146 28.1705 0 0 -2.65394 1.39266e-012 7.19601e-005 21.4478 0 0 -1.95822 1.36424e-012 5.30956e-005 0 0 -0 -8.80976 0.500893 1.30547 9.22568 -0.320774 -4.74011 -4.86325 -1.3074e-012 0.000131881 26.9385 0 0 -2.76524 1.76215e-012 7.49854e-005 19.7698 0 0 -2.00563 0 5.43888e-005 0 0 -0 -8.89383 0.379922 -0.792364 1.44853 -0.0505784 -0.91153 -4.53776 4.09273e-012 0.000123049 24.6307 0 0 -2.30453 4.12115e-012 6.24859e-005 17.4815 0 0 -1.92335 7.38964e-013 5.21537e-005 0 0 -0 -8.8825 -0.313025 -2.48956 2.33487 -0.0815129 2.68187 -3.0478 -6.65921e-011 8.26466e-005 16.5655 0 0 -1.9769 -3.85683e-011 5.36145e-005 10.8109 0 0 -1.66864 -3.54419e-011 4.5245e-005 0 0 -0 2.32301e-006 11.5156 1.94702 4.00258 -20.7427 14.1955 -1.26215e-005 11.0733 1.65432 -7.99121 23.8885 16.5471 
